<svg width="24" height="24" viewBox="0 0 24 24" fill="none" xmlns="http://www.w3.org/2000/svg">
<path d="M3.98895 14.6602L2.46895 13.1402C2.17119 12.8395 2.00415 12.4334 2.00415 12.0102C2.00415 11.587 2.17119 11.1809 2.46895 10.8802L3.98895 9.36019C4.26962 9.04797 4.43541 8.64936 4.45895 8.23019V6.08019C4.45895 5.65584 4.62752 5.24888 4.92758 4.94882C5.22764 4.64876 5.6346 4.48019 6.05895 4.48019H8.20395C8.62312 4.45665 9.02173 4.29086 9.33395 4.01019L10.859 2.49019C11.1597 2.19243 11.5658 2.02539 11.989 2.02539C12.4121 2.02539 12.8182 2.19243 13.119 2.49019L14.639 4.01019C14.9512 4.29086 15.3498 4.45665 15.769 4.48019H17.919C18.3433 4.48019 18.7503 4.64876 19.0503 4.94882C19.3504 5.24888 19.5189 5.65584 19.5189 6.08019V8.22519C19.5425 8.64436 19.7083 9.04297 19.989 9.35519L21.5089 10.8752C21.8067 11.1759 21.9738 11.582 21.9738 12.0052C21.9738 12.4284 21.8067 12.8345 21.5089 13.1352L19.989 14.6552C19.7083 14.9674 19.5425 15.366 19.5189 15.7852V17.9352C19.5189 18.3595 19.3504 18.7665 19.0503 19.0666C18.7503 19.3666 18.3433 19.5352 17.919 19.5352H15.769C15.3498 19.5587 14.9512 19.7245 14.639 20.0052L13.119 21.5252C12.8182 21.823 12.4121 21.99 11.989 21.99C11.5658 21.99 11.1597 21.823 10.859 21.5252L9.33895 20.0052C9.02673 19.7245 8.62812 19.5587 8.20895 19.5352H6.05895C5.6346 19.5352 5.22764 19.3666 4.92758 19.0666C4.62752 18.7665 4.45895 18.3595 4.45895 17.9352V15.7852C4.43792 15.3669 4.27172 14.9691 3.98895 14.6602Z" fill="#1AB759" stroke="#1AB759" stroke-width="1.5" stroke-linecap="round" stroke-linejoin="round"/>
<path d="M9 15L15 9" stroke="white" stroke-width="1.5" stroke-linecap="round" stroke-linejoin="round"/>
<path d="M14.495 14.5H14.5" stroke="white" stroke-width="2" stroke-linecap="round" stroke-linejoin="round"/>
<path d="M9.495 9.5H9.5" stroke="white" stroke-width="2" stroke-linecap="round" stroke-linejoin="round"/>
</svg>
