<svg id="Layer_3" xmlns="http://www.w3.org/2000/svg" width="184.963" height="271.977" viewBox="0 0 184.963 271.977">
  <g id="Group_88798" data-name="Group 88798">
    <path id="Path_77016" data-name="Path 77016" d="M137.683,118.819a56.393,56.393,0,0,0,11.649-34.478V52.68h-6.464A56.9,56.9,0,0,0,92.474,83.251,56.9,56.9,0,0,0,42.079,52.68H35.615V84.341a56.4,56.4,0,0,0,11.657,34.478H0V170.3H184.963V118.819H137.691ZM136.4,66.087V84.341A43.619,43.619,0,0,1,123.539,115.4a44.407,44.407,0,0,1-3.852,3.42H98.938v-9.28A43.994,43.994,0,0,1,136.4,66.087ZM61.416,115.4A43.632,43.632,0,0,1,48.551,84.341V66.087A43.994,43.994,0,0,1,86.01,109.539v9.28H65.26a44.406,44.406,0,0,1-3.852-3.42ZM12.928,131.747H86.017v25.621H12.928V131.747Zm159.1,25.621H98.945V131.747h73.081v25.621Z" transform="translate(0 -11.354)" fill="#222b44"/>
    <path id="Path_77017" data-name="Path 77017" d="M137.206,26.633,110.573,0,83.94,26.633l26.633,26.633Zm-26.633-8.347,8.347,8.347-8.347,8.347-8.347-8.347Z" transform="translate(-18.091)" fill="#222b44"/>
  </g>
  <g id="Group_88799" data-name="Group 88799" transform="translate(18.106 172.443)">
    <path id="Path_77018" data-name="Path 77018" d="M37.852,295.276a5.8,5.8,0,0,0-2.761-.745,4.917,4.917,0,0,0-2.016.424,5.776,5.776,0,0,0-3.185,3.609c-.141.494-.322.745-.533.745h-.533a.889.889,0,0,1-.745-.533,13.1,13.1,0,0,1-1.592-6.048q0-6.26,5.727-9.759A6.528,6.528,0,0,0,35.5,277.03q.106-25.57.1-51.25l-9.233,5.3a6.517,6.517,0,0,0-3.287,5.727v51.461a18.014,18.014,0,0,0,2.6,9.233,19.72,19.72,0,0,0,6.739,7.005,5.607,5.607,0,0,0,2.652.745,5.082,5.082,0,0,0,4.668-2.761,5.2,5.2,0,0,0,.745-2.651,5.056,5.056,0,0,0-2.652-4.566Z" transform="translate(-23.08 -221.105)" fill="#222b44"/>
    <path id="Path_77019" data-name="Path 77019" d="M61.928,259.156v34.485q0,8.272-5.3,12.732-7,5.625-7.005,13.791a5.241,5.241,0,0,0,1.436,3.875,4.582,4.582,0,0,0,3.342,1.436,4.9,4.9,0,0,0,4.887-4.887,4.774,4.774,0,0,0-4.77-4.777,5.058,5.058,0,0,0-1.381.212h-.212a.834.834,0,0,1-.745-.322,1.139,1.139,0,0,1-.212-.635l.11-.424a16.822,16.822,0,0,1,6.684-5.3q9.661-5.413,13.791-17.4a34.231,34.231,0,0,0,1.906-11.249V248.22l-9.233,5.3a6.265,6.265,0,0,0-3.287,5.625Z" transform="translate(-28.8 -225.941)" fill="#222b44"/>
    <path id="Path_77020" data-name="Path 77020" d="M71.717,244.5l4.879-4.879a2.811,2.811,0,0,0,0-3.813l-4.879-4.879-4.879,4.879a2.568,2.568,0,0,0,0,3.813Z" transform="translate(-32.328 -222.215)" fill="#222b44"/>
    <path id="Path_77021" data-name="Path 77021" d="M185.015,233.4l4.879-4.879a2.824,2.824,0,0,0,.745-1.906,3.243,3.243,0,0,0-.745-2.016l-4.879-4.777-4.879,4.777a3.243,3.243,0,0,0-.745,2.016,2.824,2.824,0,0,0,.745,1.906Z" transform="translate(-56.769 -219.82)" fill="#222b44"/>
    <path id="Path_77022" data-name="Path 77022" d="M181.713,246.021a19.7,19.7,0,0,0-14.434-6.048,19.057,19.057,0,0,0-7.908,1.694A21.487,21.487,0,0,0,148.389,252.6a18.966,18.966,0,0,0-1.694,7.962v21.432a18.7,18.7,0,0,0,1.694,7.853,25.726,25.726,0,0,0,1.271,2.44c.424.706.816,1.381,1.169,2.016a3.749,3.749,0,0,1,.533,1.8,3.051,3.051,0,0,1-.533,1.592,3.194,3.194,0,0,1-2.228,1.694H112.907c-2.2,0-3.287-.957-3.287-2.863V237l-9.233,5.2a6.517,6.517,0,0,0-3.287,5.727V288.25a12.566,12.566,0,0,0,4.934,10.237,16.92,16.92,0,0,0,10.873,3.977h54.372a20.652,20.652,0,0,0,20.483-20.483V260.55a19.825,19.825,0,0,0-6.048-14.536Zm-6.37,45.413a7.75,7.75,0,0,1-2.385,5.68,7.876,7.876,0,0,1-5.782,2.385,8.257,8.257,0,0,1-5.68-2.44,7.567,7.567,0,0,1-2.385-5.625V251.113a7.692,7.692,0,0,1,2.385-5.727,7.975,7.975,0,0,1,5.782-2.338,8.062,8.062,0,0,1,8.064,8.064Z" transform="translate(-39.033 -223.523)" fill="#222b44"/>
  </g>
</svg>
