<?xml version="1.0" encoding="UTF-8"?>
<svg width="700pt" height="700pt" version="1.1" viewBox="0 0 700 700" xmlns="http://www.w3.org/2000/svg">
 <path d="m398.5 83.008 11.168-11.172c8.6992-8.6992 16.199-16.203 22.887-21.875 7.0547-5.9883 14.723-11.301 24.145-14.363 14.059-4.5664 29.203-4.5664 43.262 0 9.4258 3.0625 17.086 8.375 24.145 14.363 6.6836 5.6758 14.188 13.18 22.887 21.875l11.172 11.172c8.6992 8.6992 16.199 16.199 21.879 22.887 5.9883 7.0547 11.301 14.719 14.363 24.145 4.5703 14.059 4.5703 29.203 0 43.262-3.0625 9.4258-8.3711 17.09-14.363 24.145-5.6758 6.6836-13.18 14.188-21.879 22.887l-11.176 11.176c-8.6953 8.6953-16.199 16.199-22.883 21.871-7.0547 5.9922-14.719 11.301-24.145 14.363-14.059 4.5703-29.203 4.5703-43.262 0-9.4258-3.0625-17.09-8.3711-24.145-14.363-6.6836-5.6758-14.188-13.18-22.887-21.875l-11.168-11.172c-8.6992-8.6992-16.203-16.199-21.879-22.887-5.9883-7.0547-11.301-14.719-14.363-24.145-4.5703-14.059-4.5703-29.203 0-43.262 3.0625-9.4258 8.3711-17.09 14.363-24.145 5.6758-6.6836 13.18-14.188 21.875-22.883h0.003906zm13.699 53.086c-4.1172 4.8477-5.1562 7.1328-5.5547 8.3633-1.5234 4.6875-1.5234 9.7344 0 14.422 0.39844 1.2305 1.4414 3.5156 5.5547 8.3633 4.293 5.0586 10.422 11.211 19.934 20.723l9.8984 9.8984c9.5117 9.5117 15.668 15.641 20.727 19.934 4.8477 4.1172 7.1289 5.1562 8.3633 5.5547 4.6875 1.5234 9.7344 1.5234 14.422 0 1.2305-0.39844 3.5156-1.4414 8.3633-5.5547 5.0547-4.293 11.211-10.422 20.727-19.934l9.8984-9.8984c9.5117-9.5117 15.645-15.668 19.938-20.723 4.1172-4.8477 5.1562-7.1328 5.5547-8.3633 1.5234-4.6875 1.5234-9.7344 0-14.422-0.39844-1.2305-1.4414-3.5156-5.5547-8.3633-4.293-5.0586-10.422-11.211-19.938-20.723l-9.8984-9.8984c-9.5117-9.5117-15.668-15.641-20.727-19.934-4.8477-4.1172-7.1328-5.1562-8.3633-5.5547-4.6875-1.5234-9.7344-1.5234-14.422 0-1.2305 0.39844-3.5156 1.4414-8.3633 5.5547-5.0547 4.293-11.211 10.422-20.727 19.934l-9.8984 9.8984c-9.5117 9.5117-15.641 15.668-19.934 20.723zm-182.64 167.24h-15.797c-12.301 0-22.91 0-31.652 0.71484-9.2266 0.75391-18.398 2.418-27.23 6.9141-13.172 6.7109-23.879 17.422-30.59 30.59-4.5 8.8281-6.1641 18.004-6.918 27.23-0.71484 8.7422-0.71484 19.352-0.71484 31.648v15.805c0 12.301 0 22.91 0.71484 31.648 0.75391 9.2266 2.418 18.402 6.918 27.23 6.7109 13.172 17.422 23.879 30.59 30.59 8.8281 4.5 18.004 6.1641 27.23 6.9141 8.7383 0.71484 19.352 0.71484 31.652 0.71484h15.797c12.301 0 22.91 0 31.652-0.71484 9.2266-0.75391 18.398-2.418 27.23-6.9141 13.172-6.7109 23.879-17.418 30.594-30.59 4.4961-8.8281 6.1641-18.004 6.9141-27.23 0.71484-8.7383 0.71484-19.352 0.71094-31.652v-15.797c0.003906-12.301 0.003906-22.91-0.71094-31.652-0.75391-9.2266-2.418-18.402-6.9141-27.23-6.7148-13.168-17.422-23.879-30.594-30.59-8.8281-4.5-18.004-6.1641-27.23-6.9141-8.7383-0.71484-19.352-0.71484-31.652-0.71484zm-53.492 49.211c1.1523-0.58984 3.5039-1.4688 9.8438-1.9844 6.6094-0.53906 15.297-0.55859 28.75-0.55859h14c13.453 0 22.141 0.019531 28.75 0.55859 6.3398 0.51953 8.6875 1.3984 9.8438 1.9844 4.3906 2.2383 7.9609 5.8086 10.195 10.195 0.58594 1.1562 1.4688 3.5039 1.9844 9.8438 0.53906 6.6094 0.55859 15.297 0.55859 28.75v14c0 13.453-0.019531 22.137-0.55859 28.75-0.51953 6.3359-1.3984 8.6875-1.9844 9.8438-2.2383 4.3906-5.8047 7.9609-10.195 10.195-1.1523 0.58984-3.5039 1.4688-9.8438 1.9844-6.6094 0.53906-15.297 0.55859-28.75 0.55859h-14c-13.453 0-22.141-0.019531-28.75-0.55859-6.3398-0.51953-8.6875-1.3984-9.8438-1.9844-4.3906-2.2383-7.9609-5.8047-10.195-10.195-0.58984-1.1523-1.4688-3.5039-1.9844-9.8438-0.53906-6.6133-0.55859-15.297-0.55859-28.75v-14c0-13.453 0.019531-22.137 0.55859-28.75 0.51953-6.3398 1.3984-8.6875 1.9844-9.8438 2.2383-4.3906 5.8047-7.9609 10.195-10.195zm310.16-49.211h-15.801c-12.301 0-22.91 0-31.652 0.71484-9.2227 0.75391-18.402 2.418-27.227 6.9141-13.172 6.7109-23.883 17.422-30.594 30.59-4.5 8.8281-6.1641 18.004-6.9141 27.23-0.71484 8.7422-0.71484 19.352-0.71484 31.652v15.801c0 12.301 0 22.91 0.71484 31.648 0.75391 9.2266 2.418 18.402 6.9141 27.23 6.7109 13.172 17.422 23.879 30.594 30.59 8.8281 4.5 18.004 6.1641 27.227 6.9141 8.7422 0.71484 19.352 0.71484 31.652 0.71484h15.801c12.301 0 22.91 0 31.652-0.71484 9.2227-0.75391 18.398-2.418 27.227-6.9141 13.172-6.7109 23.879-17.418 30.594-30.59 4.4961-8.8281 6.1641-18.004 6.9141-27.23 0.71484-8.7383 0.71094-19.348 0.71094-31.648v-15.809c0-12.301 0.003907-22.91-0.71094-31.648-0.75391-9.2266-2.418-18.402-6.9141-27.23-6.7148-13.168-17.422-23.879-30.594-30.59-8.8281-4.5-18.004-6.1641-27.227-6.9141-8.7422-0.71484-19.352-0.71484-31.652-0.71484zm-53.492 49.211c1.1562-0.58984 3.5039-1.4688 9.8438-1.9844 6.6094-0.53906 15.297-0.55859 28.75-0.55859h14c13.453 0 22.141 0.019531 28.75 0.55859 6.3398 0.51953 8.6875 1.3984 9.8438 1.9844 4.3906 2.2383 7.9609 5.8086 10.195 10.195 0.58984 1.1562 1.4688 3.5039 1.9844 9.8438 0.54297 6.6094 0.55859 15.297 0.55859 28.75v14c0 13.453-0.015625 22.137-0.55859 28.75-0.51953 6.3359-1.3984 8.6875-1.9844 9.8438-2.2344 4.3906-5.8047 7.9609-10.195 10.195-1.1523 0.58984-3.5039 1.4688-9.8438 1.9844-6.6094 0.53906-15.297 0.55859-28.75 0.55859h-14c-13.453 0-22.137-0.019531-28.75-0.55859-6.3398-0.51953-8.6875-1.3984-9.8438-1.9844-4.3906-2.2383-7.9609-5.8047-10.195-10.195-0.58984-1.1523-1.4648-3.5039-1.9844-9.8438-0.54297-6.6133-0.55859-15.297-0.55859-28.75v-14c0-13.453 0.019532-22.137 0.55859-28.75 0.51953-6.3398 1.3945-8.6875 1.9844-9.8438 2.2383-4.3906 5.8086-7.9609 10.195-10.195zm-203.17-305.88h-15.797c-12.301 0-22.91 0-31.652 0.71484-9.2266 0.75391-18.398 2.418-27.23 6.918-13.172 6.7109-23.879 17.418-30.59 30.59-4.5 8.8281-6.1641 18.004-6.918 27.23-0.71484 8.7383-0.71484 19.352-0.71484 31.648v15.797c0 12.301 0 22.91 0.71484 31.648 0.75391 9.2266 2.418 18.398 6.918 27.23 6.7109 13.172 17.422 23.879 30.59 30.59 8.8281 4.5 18.004 6.1641 27.23 6.9141 8.7383 0.71484 19.352 0.71484 31.652 0.71484h15.797c12.301 0 22.91 0 31.652-0.71484 9.2266-0.75391 18.398-2.418 27.23-6.9141 13.172-6.7109 23.879-17.418 30.594-30.59 4.4961-8.8281 6.1641-18.004 6.9141-27.23 0.71484-8.7383 0.71484-19.352 0.71094-31.652v-15.797c0.003906-12.301 0.003906-22.91-0.71094-31.652-0.75391-9.2266-2.418-18.398-6.9141-27.23-6.7148-13.172-17.422-23.879-30.594-30.59-8.8281-4.5-18.004-6.1641-27.23-6.918-8.7383-0.71484-19.352-0.71484-31.652-0.71484zm-53.492 49.211c1.1523-0.58594 3.5039-1.4688 9.8438-1.9844 6.6094-0.53906 15.297-0.55859 28.75-0.55859h14c13.453 0 22.141 0.019531 28.75 0.55859 6.3398 0.51953 8.6875 1.3984 9.8438 1.9844 4.3906 2.2383 7.9609 5.8047 10.195 10.195 0.58594 1.1523 1.4688 3.5039 1.9844 9.8438 0.53906 6.6094 0.55859 15.297 0.55859 28.75v14c0 13.453-0.019531 22.141-0.55859 28.75-0.51953 6.3398-1.3984 8.6875-1.9844 9.8438-2.2383 4.3906-5.8047 7.9609-10.195 10.195-1.1523 0.58594-3.5039 1.4688-9.8438 1.9844-6.6094 0.53906-15.297 0.55859-28.75 0.55859h-14c-13.453 0-22.141-0.019531-28.75-0.55859-6.3398-0.51953-8.6875-1.3984-9.8438-1.9844-4.3906-2.2383-7.9609-5.8047-10.195-10.195-0.58984-1.1523-1.4688-3.5039-1.9844-9.8438-0.53906-6.6094-0.55859-15.297-0.55859-28.75v-14c0-13.453 0.019531-22.141 0.55859-28.75 0.51953-6.3398 1.3984-8.6875 1.9844-9.8438 2.2383-4.3906 5.8047-7.9609 10.195-10.195z" fill-rule="evenodd"/>
</svg>
